<?xml version="1.0" encoding="utf-8"?>
<!-- Generator: Adobe Illustrator 19.0.0, SVG Export Plug-In . SVG Version: 6.00 Build 0)  -->
<svg version="1.1" id="Layer_1" xmlns="http://www.w3.org/2000/svg" xmlns:xlink="http://www.w3.org/1999/xlink" x="0px" y="0px"
	 viewBox="0 0 144 144" style="enable-background:new 0 0 144 144;" xml:space="preserve">
<style type="text/css">
	.st0{fill-rule:evenodd;clip-rule:evenodd;fill:#010101;}
</style>
<path id="XMLID_3_" class="st0" d="M62.1,60H37.5C35,60,33,62,33,64.5c0,2.5,2,4.5,4.5,4.5h24.5c2.5,0,4.5-2,4.5-4.5
	C66.6,62,64.6,60,62.1,60 M31.5,33C29,33,27,31,27,28.5c0-2.5,2.1-4.5,4.5-4.5h81.1c2.5,0,4.5,2,4.5,4.5c0,2.5-2,4.5-4.5,4.5H31.5z
	 M121.3,39c4.2,0,7.7,3.4,7.7,7.5v48c0,4.1-3.4,7.5-7.6,7.5H111v15c0,3.3-2.7,6-6,6H39c-3.3,0-6-2.6-6-6v-15H22.6
	c-4.2,0-7.6-3.4-7.6-7.5v-48c0-4.1,3.4-7.5,7.7-7.5H121.3z M42,114h60V90H42V114z M111,81H33v12h-9V48h96v45h-9V81z"/>
</svg>
