<?xml version="1.0" encoding="UTF-8" standalone="no"?>
<svg width="24px" height="24px" viewBox="0 0 24 24" version="1.1" xmlns="http://www.w3.org/2000/svg" xmlns:xlink="http://www.w3.org/1999/xlink">
    <!-- Generator: Sketch 40.3 (33839) - http://www.bohemiancoding.com/sketch -->
    <title>zoom-out</title>
    <desc>Created with Sketch.</desc>
    <defs></defs>
    <g id="Page-2" stroke="none" stroke-width="1" fill="none" fill-rule="evenodd">
        <g id="zoom-out" fill="#000000">
            <path d="M10.12275,16.122561 C6.80874999,16.122561 4.12274999,13.436561 4.12274999,10.122561 C4.12274999,6.80856099 6.80874999,4.12256099 10.12275,4.12256099 C13.43675,4.12256099 16.12275,6.80856099 16.12275,10.122561 C16.12275,13.436561 13.43675,16.122561 10.12275,16.122561 M21.08475,19.669561 L16.08675,14.671561 C18.33575,11.731561 18.11475,7.50856099 15.42575,4.81956099 C12.49675,1.89056099 7.74874999,1.89056099 4.81974999,4.81956099 C1.89074999,7.74856099 1.89074999,12.496561 4.81974999,15.425561 C7.50874999,18.114561 11.73175,18.335561 14.67175,16.086561 L19.66975,21.084561 C20.06275,21.476561 20.69275,21.473561 21.08275,21.082561 C21.47575,20.689561 21.47375,20.059561 21.08475,19.669561 M12.92275,9.37256099 L7.32274999,9.37256099 C6.93574999,9.37256099 6.62274999,9.70856099 6.62274999,10.122561 C6.62274999,10.536561 6.93574999,10.872561 7.32274999,10.872561 L12.92275,10.872561 C13.30975,10.872561 13.62275,10.536561 13.62275,10.122561 C13.62275,9.70856099 13.30975,9.37256099 12.92275,9.37256099" id="Combined-Shape"></path>
        </g>
    </g>
</svg>