<?xml version="1.0" encoding="UTF-8" standalone="no"?>
<svg width="24px" height="24px" viewBox="0 0 24 24" version="1.1" xmlns="http://www.w3.org/2000/svg" xmlns:xlink="http://www.w3.org/1999/xlink">
    <!-- Generator: Sketch 40.3 (33839) - http://www.bohemiancoding.com/sketch -->
    <title>zoom-to-height</title>
    <desc>Created with Sketch.</desc>
    <defs></defs>
    <g id="Page-2" stroke="none" stroke-width="1" fill="none" fill-rule="evenodd">
        <g id="zoom-to-height" fill="#000000">
            <path d="M10.5,11.25 L19.9374013,11.25 L17.3570645,8.66977202 C17.0642062,8.37700646 17.0642062,7.90233972 17.3570645,7.60957416 C17.6499229,7.31680861 18.1247401,7.31680861 18.4175985,7.60957416 L22.2803563,11.4711078 C22.5732146,11.7638734 22.5732146,12.2385401 22.2803563,12.5313057 L18.4200127,16.3904258 C18.1271543,16.6831914 17.6523371,16.6831914 17.3594787,16.3904258 C17.0666204,16.0976603 17.0666204,15.6229935 17.3594787,15.330228 L19.9395236,12.75 L10.5,12.75 L4.06047638,12.75 L6.64052128,15.330228 C6.93337965,15.6229935 6.93337965,16.0976603 6.64052128,16.3904258 C6.34766292,16.6831914 5.8728457,16.6831914 5.57998734,16.3904258 L1.71964378,12.5313057 C1.42678542,12.2385401 1.42678542,11.7638734 1.71964378,11.4711078 L5.58240156,7.60957416 C5.87525992,7.31680861 6.35007715,7.31680861 6.64293551,7.60957416 C6.93579387,7.90233972 6.93579387,8.37700646 6.64293551,8.66977202 L4.06259872,11.25 L10.5,11.25 Z" id="Combined-Shape" transform="translate(12.000000, 12.000000) rotate(-270.000000) translate(-12.000000, -12.000000) "></path>
        </g>
    </g>
</svg>